<?xml version="1.0" encoding="utf-8"?><!DOCTYPE svg PUBLIC "-//W3C//DTD SVG 1.1//EN" "http://www.w3.org/Graphics/SVG/1.1/DTD/svg11.dtd"><svg version="1.1" xmlns="http://www.w3.org/2000/svg" xmlns:ss="http://ns.smallsketch.app/SmallSketch/1.0" x="0.0mm" y="0.0mm" width="34.882454mm" height="37.46071mm"  viewBox="0.0 0.0 34.882454 37.46071"><ss:strokes><ss:stroke color="rgb(76, 96, 130)" strokewidth="0.254">28.981369,26.230484,29.666237,23.866241,30.116562,21.426926,30.4543,20.347977</ss:stroke><ss:stroke color="rgb(76, 96, 130)" strokewidth="0.254">1.0051613,9.51178,0.9488716,9.361694,0.83628845,9.361694,0.78938293,9.474304,0.8081436,10.928497,1.0895958,13.161377,1.2209358,14.897034,1.605587,16.407547,1.8776588,18.330872,2.3561249,20.291702,2.6563377,22.046143,3.8759613,26.624542,4.2136993,27.16867,4.7390747,28.491531,5.667862,30.19905,5.8836403,30.47113,6.662319,31.1091,6.962536,31.437485,7.9007072,32.507004,9.1297035,34.111343,9.777046,34.599197,10.124165,34.96512,10.921608,35.51863,11.765961,35.987747,13.388996,36.606934,14.4303665,36.84149,15.912674,37.366882,17.526321,37.46071,18.689655,37.34813,19.515244,37.00099,20.059383,36.897797,21.24147,36.513107,22.564297,35.83763,22.8176,35.631226,23.502468,35.32161,24.90033,34.148865,25.444466,33.38893,26.251297,32.65712,26.711006,32.028534,27.198853,31.17479,27.696083,29.94574,28.18393,29.345306,28.456001,28.735474</ss:stroke><ss:stroke color="rgb(76, 96, 130)" strokewidth="0.254">31.880318,16.022919,31.720825,16.163635,31.702065,16.294968,31.795883,15.816498,32.180527,14.625,32.39631,14.221558,32.61209,13.320892,33.109314,10.403107,33.50335,8.836304,33.728508,7.588501,33.766037,6.800415,33.859848,6.584656,33.859848,6.3876038,33.77542,6.397003</ss:stroke><ss:stroke color="rgb(76, 96, 130)" strokewidth="0.254">28.75621,14.071457,28.587341,13.9869995,27.911865,14.062073,26.870491,14.465485,26.176247,14.906448,25.313133,16.041656,25.069206,16.491974,24.806515,17.214386,24.862812,17.908691,24.95663,18.143219,25.050442,18.199493,26.213776,18.368408,26.617188,18.602936,29.628708,19.93515,30.294807,20.329224,31.15792,21.00473,32.049187,21.999222,32.415077,22.571533,32.696526,23.969437,32.715286,24.588654,32.658997,24.907623,32.330635,25.442383,31.17669,26.465042,29.619331,27.046722,29.337883,27.103012,28.174545,27.084229,27.114418,27.271896,25.022297,27.29065,24.18732,27.478287,24.046593,27.628418,24.03722,27.881699,24.18732,28.285141,24.393723,28.425858,24.64703,28.529083,25.406952,28.660416,25.669632,28.960632,25.838509,29.045074,26.448318,29.063828,27.105034,29.251495,27.545975,29.110748,28.484138,29.03569,29.731903,28.716705,30.857712,27.96614,31.74897,27.478287,33.33448,26.202347,34.488426,24.325958,34.638535,23.941269,34.8637,22.299438,34.882454,21.070389,34.798027,20.732666,34.263268,19.766296,32.940453,18.22763,31.073494,16.726532,29.863258,16.032272,28.728065,14.94397,27.827423,14.653137,27.51783,14.643753,27.621025,14.72818,27.789902,14.746948</ss:stroke><ss:stroke color="rgb(76, 96, 130)" strokewidth="0.254">17.24355,0.85372925,17.24355,0.7692871,17.13097,0.731781,16.192799,0.7224121,15.357834,0.975708,14.00687,1.1914978,12.909214,1.4729614,11.070396,2.1015625,7.2145233,3.5651245,5.0004463,4.615906,2.3735657,5.995056,1.8575706,6.3046875,1.0132256,6.9895325,0.49723053,7.6275024,0.2908287,7.98407,0.0,8.903503,0.056289673,9.288147,0.2908287,9.597717,0.49723053,9.747864,0.7974472,9.897949,1.6511803,10.094971,7.2895737,10.395203,17.19664,10.52655,23.210316,10.301392,25.884094,9.963654,28.914383,9.475769,30.612465,8.997314,31.803947,8.565735,32.563858,8.049744,33.473885,7.242859,33.896057,6.360962,33.94297,5.7698975,33.867912,5.488434,33.633377,5.178833,32.15107,3.7434082,31.241043,2.9553223,30.218437,2.2235107,29.571098,1.904541,27.375786,1.1539917,24.289204,0.29083252,22.947624,0.14071655,20.442707,0.112579346,18.369358,0.0,17.055916,0.03753662,16.980862,0.12194824,16.962105,0.31896973</ss:stroke><ss:stroke color="rgb(76, 96, 130)" strokewidth="0.254">4.9997787,10.314575,4.9997787,10.295807,4.9997787,10.220764,5.0935974,10.117554,5.1967964,9.986206,5.2999954,9.845459,5.4501,9.704742,5.6095924,9.535889,5.9473305,9.329468,6.3507423,9.09491,6.791687,8.822845,7.3170624,8.541382,7.9643974,8.250549,8.574207,7.959717,9.1652565,7.7157593,9.812592,7.509369,10.51622,7.3498535,11.266754,7.199768,12.036049,6.993347,12.739674,6.8619995,13.3870125,6.711914,14.090641,6.5617676,14.756741,6.355377,15.479134,6.2240295,16.229668,6.036377,16.942673,5.9050293,17.580631,5.8299866,18.18106,5.783081,18.77211,5.754944,19.391296,5.68927,20.029255,5.632965,20.573395,5.614197,21.033096,5.614197,21.455273,5.614197,21.905594,5.614197,22.34653,5.614197,22.815617,5.614197,23.247173,5.5954285,23.61306,5.5860596,23.894512,5.623596,24.20411,5.717407,24.560612,5.8206177,24.917118,5.9050293,25.320526,5.961334,25.705185,6.036377,26.005394,6.11145,26.239937,6.205261,26.43695,6.336609,26.633972,6.4679565,26.85913,6.6274414,27.074913,6.711914,27.262543,6.880768,27.459557,7.040283,27.675339,7.124695,27.919258,7.2841797,28.125664,7.4342957,28.332054,7.5844116,28.482162,7.7345276,28.55722,7.8658752,28.669792,7.9690857,28.735466,8.072266,28.772995,8.222382,28.810524,8.419434,28.829285,8.541382,28.829285,8.644592,28.829285,8.719635,28.8199,8.822845,28.772995,8.926025,28.707321,9.076141,28.651031,9.216888,28.613503,9.329468,28.594742,9.367004,28.547829,9.385742,28.547829,9.385742</ss:stroke><ss:stroke color="rgb(76, 96, 130)" strokewidth="0.254">20.453228,5.723419,20.453228,5.723419,20.490757,5.6765137,20.593956,5.629608,20.7253,5.61084,20.941078,5.61084,21.260052,5.61084,21.560268,5.6483765,21.888626,5.751587,22.310802,5.9016724,22.826797,6.089325,23.333408,6.2957153,23.830639,6.511505,24.28096,6.736664,24.731281,6.971222,25.228512,7.1588745,25.678833,7.30896,26.044724,7.4684753,26.279259,7.543518,26.513802,7.6373596,26.73896,7.7218018,26.945366,7.7968445,27.151764,7.871887,27.23619,7.928192,27.27372,7.9656982,27.33001,8.003235,27.433212,8.05954,27.630226,8.115845,27.789711,8.172119,27.836624,8.209656,27.780334,8.209656,27.780334,8.209656</ss:stroke><ss:stroke color="rgb(76, 96, 130)" strokewidth="0.254">18.417404,5.8641663,18.38926,5.854767,18.35173,5.8078613,18.408016,5.7703247,18.464314,5.7421875,18.548744,5.7328186,18.661327,5.7328186,18.773907,5.7328186,18.924015,5.751587,19.03659,5.8078613,19.196083,5.8829346,19.421246,5.9767456,19.646404,6.089325,19.984142,6.239441,20.312508,6.3895264,20.6221,6.539673,20.959839,6.6991577,21.363258,6.9243164,21.785427,7.1119385,22.160694,7.2526855,22.517204,7.4591064,22.883087,7.609192,23.248974,7.7124023,23.624245,7.8531494,23.961979,7.9656982,24.252815,8.078308,24.524887,8.181519,24.853245,8.26593,25.162838,8.37854,25.416145,8.48172,25.641304,8.594299,25.763268,8.68811,25.86647,8.763184,25.97905,8.828857,26.11039,8.903931,26.260498,8.960205,26.410606,8.997742,26.504425,9.035278,26.541946,9.035278,26.513802,9.035278,26.269882,9.025879,26.269882,9.025879</ss:stroke><ss:stroke color="rgb(76, 96, 130)" strokewidth="0.254">16.353428,6.014282,16.353428,6.004883,16.334663,5.9204407,16.334663,5.8829346,16.334663,5.873535,16.334663,5.873535,16.419102,5.9486084,16.61612,6.0424194,16.850658,6.14563,17.11335,6.24881,17.441708,6.3520203,17.770065,6.4458313,18.145332,6.539673,18.473694,6.652252,18.755142,6.811737,19.017834,6.961853,19.271137,7.0838013,19.608875,7.196411,19.909088,7.327759,20.237446,7.4591064,20.490757,7.5904236,20.7253,7.693634,20.922314,7.7968445,21.138088,7.8906555,21.40078,8.003235,21.616562,8.106445,21.81358,8.219025,22.00121,8.312866,22.226368,8.462952,22.470295,8.566162,22.714222,8.678741,22.854942,8.791321,23.061337,8.922668,23.370937,9.100952,23.567955,9.213501,23.708675,9.316711,23.858784,9.401154,24.046421,9.494965,24.196526,9.607544,24.431068,9.7013855,24.562408,9.738892,24.599937,9.738892,24.506119,9.692017,24.431068,9.65448,24.431068,9.65448</ss:stroke><ss:stroke color="rgb(76, 96, 130)" strokewidth="0.254">13.970478,6.5209045,14.148731,6.511505,14.355129,6.502136,14.467709,6.492737,14.552143,6.492737,14.655342,6.492737,14.86174,6.5490417,15.096283,6.6053467,15.424641,6.7085266,15.781143,6.8586426,16.137653,7.0087585,16.5223,7.2245483,16.93509,7.374634,17.376034,7.571686,17.779446,7.7968445,18.201622,8.022003,18.642563,8.228394,19.13041,8.444214,19.599495,8.669373,20.06858,8.875763,20.443848,9.007111,20.744064,9.11969,20.969223,9.2323,21.175621,9.344879,21.40078,9.494965,21.597797,9.607544,21.832336,9.767059,22.076263,9.870239,22.292046,9.964081,22.310802,10.001587,22.273277,9.982849,22.207603,9.926544,22.207603,9.926544</ss:stroke><ss:stroke color="rgb(76, 96, 130)" strokewidth="0.254">12.460026,6.736664,12.460026,6.736664,12.47879,6.6897583,12.53508,6.652252,12.61013,6.652252,12.703949,6.652252,12.722713,6.652252,12.797768,6.7085266,12.966637,6.746063,13.266853,6.8305054,13.623356,6.98999,13.989243,7.1307373,14.355129,7.327759,14.730396,7.5529175,15.124428,7.7686768,15.499695,7.993866,15.8655815,8.228394,16.212708,8.453583,16.578587,8.68811,16.953857,8.885132,17.376034,9.082153,17.770065,9.2229,18.154713,9.382385,18.5206,9.588806,18.867725,9.785828,19.055355,9.86087,19.149174,9.917175,19.252373,9.97345,19.458767,10.057892,19.702694,10.161102,19.815277,10.29245,19.834034,10.348724,19.834034,10.348724</ss:stroke><ss:stroke color="rgb(76, 96, 130)" strokewidth="0.254">10.912048,6.980591,10.912048,6.971222,10.930809,6.914917,10.94957,6.877411,10.968338,6.868042,11.024624,6.88678,11.174732,6.905548,11.324841,6.98999,11.615673,7.149475,11.925266,7.290222,12.253628,7.477844,12.61013,7.684265,13.0323105,7.909424,13.360668,8.1345825,13.651501,8.2846985,13.932953,8.500488,14.289459,8.716278,14.683487,8.950806,15.021229,9.166626,15.255772,9.363617,15.4903145,9.523132,15.7248535,9.616943,15.987545,9.748291,16.212708,9.879639,16.409721,10.010986,16.550446,10.104797,16.709938,10.1892395,16.916332,10.264313,16.991386,10.320587,17.01015,10.339355,16.991386,10.29245,16.991386,10.29245</ss:stroke><ss:stroke color="rgb(76, 96, 130)" strokewidth="0.254">9.364067,7.684265,9.364067,7.684265,9.364067,7.6560974,9.364067,7.62796,9.354687,7.5904236,9.307777,7.534149,9.251488,7.4872437,9.223339,7.477844,9.223339,7.4966125,9.364067,7.599823,9.570461,7.7311707,9.851917,7.8625183,10.15213,8.05954,10.546158,8.209656,10.9871025,8.425446,11.4468,8.659973,11.91589,8.903931,12.375587,9.138458,12.835293,9.354248,13.219944,9.504364,13.538921,9.692017,13.801605,9.842102,14.054916,9.97345,14.223785,10.095428,14.383274,10.170471,14.523998,10.226776,14.617817,10.283051,14.721016,10.376892,14.73978,10.405029,14.73978,10.405029</ss:stroke><ss:stroke color="rgb(76, 96, 130)" strokewidth="0.254">8.022484,8.2846985,8.0131035,8.26593,7.994339,8.237793,7.9849586,8.200256,7.9755783,8.153351,7.9755783,8.125214,7.994339,8.125214,8.069393,8.181519,8.228882,8.237793,8.37899,8.322235,8.679203,8.472351,9.082615,8.678741,9.54232,8.9133,10.08646,9.147827,10.649357,9.363617,11.202881,9.598175,11.690727,9.804565,12.094139,9.992218,12.441265,10.142334,12.694569,10.236145,12.797768,10.273682,12.863441,10.29245,12.844677,10.311218,12.844677,10.311218</ss:stroke><ss:stroke color="rgb(76, 96, 130)" strokewidth="0.254">7.0280266,8.838257,6.9998817,8.80072,6.9904976,8.781952,6.9904976,8.753784,7.009262,8.725647,7.0280266,8.716278,7.0280266,8.716278,6.9998817,8.753784,6.9904976,8.810089,7.0467873,8.847626,7.140606,8.903931,7.271946,8.960205,7.4689636,9.044647,7.619072,9.110321,7.966194,9.241669,8.200737,9.401154,8.416515,9.523132,8.538479,9.635712,8.641678,9.738892,8.791782,9.842102,8.941891,9.917175,9.091999,9.992218,9.242104,10.048523,9.354687,10.123566,9.457882,10.161102,9.551701,10.245544,9.58923,10.339355,9.58923,10.339355</ss:stroke></ss:strokes><g stroke="rgb(76, 96, 130)" stroke-width="0.254" fill="none"><path d = "M 28.981369 26.230484 L 29.666237 23.866241 30.116562 21.426926 30.4543 20.347977 " /></g><g stroke="rgb(76, 96, 130)" stroke-width="0.254" fill="none"><path d = "M 1.0051613 9.51178 L 0.9488716 9.361694 0.83628845 9.361694 0.78938293 9.474304 0.8081436 10.928497 1.0895958 13.161377 1.2209358 14.897034 1.605587 16.407547 1.8776588 18.330872 2.3561249 20.291702 2.6563377 22.046143 3.8759613 26.624542 4.2136993 27.16867 4.7390747 28.491531 5.667862 30.19905 5.8836403 30.47113 6.662319 31.1091 6.962536 31.437485 7.9007072 32.507004 9.1297035 34.111343 9.777046 34.599197 10.124165 34.96512 10.921608 35.51863 11.765961 35.987747 13.388996 36.606934 14.4303665 36.84149 15.912674 37.366882 17.526321 37.46071 18.689655 37.34813 19.515244 37.00099 20.059383 36.897797 21.24147 36.513107 22.564297 35.83763 22.8176 35.631226 23.502468 35.32161 24.90033 34.148865 25.444466 33.38893 26.251297 32.65712 26.711006 32.028534 27.198853 31.17479 27.696083 29.94574 28.18393 29.345306 28.456001 28.735474 " /></g><g stroke="rgb(76, 96, 130)" stroke-width="0.254" fill="none"><path d = "M 31.880318 16.022919 L 31.720825 16.163635 31.702065 16.294968 31.795883 15.816498 32.180527 14.625 32.39631 14.221558 32.61209 13.320892 33.109314 10.403107 33.50335 8.836304 33.728508 7.588501 33.766037 6.800415 33.859848 6.584656 33.859848 6.3876038 33.77542 6.397003 " /></g><g stroke="rgb(76, 96, 130)" stroke-width="0.254" fill="none"><path d = "M 28.75621 14.071457 L 28.587341 13.9869995 27.911865 14.062073 26.870491 14.465485 26.176247 14.906448 25.313133 16.041656 25.069206 16.491974 24.806515 17.214386 24.862812 17.908691 24.95663 18.143219 25.050442 18.199493 26.213776 18.368408 26.617188 18.602936 29.628708 19.93515 30.294807 20.329224 31.15792 21.00473 32.049187 21.999222 32.415077 22.571533 32.696526 23.969437 32.715286 24.588654 32.658997 24.907623 32.330635 25.442383 31.17669 26.465042 29.619331 27.046722 29.337883 27.103012 28.174545 27.084229 27.114418 27.271896 25.022297 27.29065 24.18732 27.478287 24.046593 27.628418 24.03722 27.881699 24.18732 28.285141 24.393723 28.425858 24.64703 28.529083 25.406952 28.660416 25.669632 28.960632 25.838509 29.045074 26.448318 29.063828 27.105034 29.251495 27.545975 29.110748 28.484138 29.03569 29.731903 28.716705 30.857712 27.96614 31.74897 27.478287 33.33448 26.202347 34.488426 24.325958 34.638535 23.941269 34.8637 22.299438 34.882454 21.070389 34.798027 20.732666 34.263268 19.766296 32.940453 18.22763 31.073494 16.726532 29.863258 16.032272 28.728065 14.94397 27.827423 14.653137 27.51783 14.643753 27.621025 14.72818 27.789902 14.746948 " /></g><g stroke="rgb(76, 96, 130)" stroke-width="0.254" fill="none"><path d = "M 17.24355 0.85372925 L 17.24355 0.7692871 17.13097 0.731781 16.192799 0.7224121 15.357834 0.975708 14.00687 1.1914978 12.909214 1.4729614 11.070396 2.1015625 7.2145233 3.5651245 5.0004463 4.615906 2.3735657 5.995056 1.8575706 6.3046875 1.0132256 6.9895325 0.49723053 7.6275024 0.2908287 7.98407 0.0 8.903503 0.056289673 9.288147 0.2908287 9.597717 0.49723053 9.747864 0.7974472 9.897949 1.6511803 10.094971 7.2895737 10.395203 17.19664 10.52655 23.210316 10.301392 25.884094 9.963654 28.914383 9.475769 30.612465 8.997314 31.803947 8.565735 32.563858 8.049744 33.473885 7.242859 33.896057 6.360962 33.94297 5.7698975 33.867912 5.488434 33.633377 5.178833 32.15107 3.7434082 31.241043 2.9553223 30.218437 2.2235107 29.571098 1.904541 27.375786 1.1539917 24.289204 0.29083252 22.947624 0.14071655 20.442707 0.112579346 18.369358 0.0 17.055916 0.03753662 16.980862 0.12194824 16.962105 0.31896973 " /></g><g stroke="rgb(76, 96, 130)" stroke-width="0.254" fill="none"><path d = "M 4.9997787 10.314575 L 4.9997787 10.295807 4.9997787 10.220764 5.0935974 10.117554 5.1967964 9.986206 5.2999954 9.845459 5.4501 9.704742 5.6095924 9.535889 5.9473305 9.329468 6.3507423 9.09491 6.791687 8.822845 7.3170624 8.541382 7.9643974 8.250549 8.574207 7.959717 9.1652565 7.7157593 9.812592 7.509369 10.51622 7.3498535 11.266754 7.199768 12.036049 6.993347 12.739674 6.8619995 13.3870125 6.711914 14.090641 6.5617676 14.756741 6.355377 15.479134 6.2240295 16.229668 6.036377 16.942673 5.9050293 17.580631 5.8299866 18.18106 5.783081 18.77211 5.754944 19.391296 5.68927 20.029255 5.632965 20.573395 5.614197 21.033096 5.614197 21.455273 5.614197 21.905594 5.614197 22.34653 5.614197 22.815617 5.614197 23.247173 5.5954285 23.61306 5.5860596 23.894512 5.623596 24.20411 5.717407 24.560612 5.8206177 24.917118 5.9050293 25.320526 5.961334 25.705185 6.036377 26.005394 6.11145 26.239937 6.205261 26.43695 6.336609 26.633972 6.4679565 26.85913 6.6274414 27.074913 6.711914 27.262543 6.880768 27.459557 7.040283 27.675339 7.124695 27.919258 7.2841797 28.125664 7.4342957 28.332054 7.5844116 28.482162 7.7345276 28.55722 7.8658752 28.669792 7.9690857 28.735466 8.072266 28.772995 8.222382 28.810524 8.419434 28.829285 8.541382 28.829285 8.644592 28.829285 8.719635 28.8199 8.822845 28.772995 8.926025 28.707321 9.076141 28.651031 9.216888 28.613503 9.329468 28.594742 9.367004 28.547829 9.385742 28.547829 9.385742 " /></g><g stroke="rgb(76, 96, 130)" stroke-width="0.254" fill="none"><path d = "M 20.453228 5.723419 L 20.453228 5.723419 20.490757 5.6765137 20.593956 5.629608 20.7253 5.61084 20.941078 5.61084 21.260052 5.61084 21.560268 5.6483765 21.888626 5.751587 22.310802 5.9016724 22.826797 6.089325 23.333408 6.2957153 23.830639 6.511505 24.28096 6.736664 24.731281 6.971222 25.228512 7.1588745 25.678833 7.30896 26.044724 7.4684753 26.279259 7.543518 26.513802 7.6373596 26.73896 7.7218018 26.945366 7.7968445 27.151764 7.871887 27.23619 7.928192 27.27372 7.9656982 27.33001 8.003235 27.433212 8.05954 27.630226 8.115845 27.789711 8.172119 27.836624 8.209656 27.780334 8.209656 27.780334 8.209656 " /></g><g stroke="rgb(76, 96, 130)" stroke-width="0.254" fill="none"><path d = "M 18.417404 5.8641663 L 18.38926 5.854767 18.35173 5.8078613 18.408016 5.7703247 18.464314 5.7421875 18.548744 5.7328186 18.661327 5.7328186 18.773907 5.7328186 18.924015 5.751587 19.03659 5.8078613 19.196083 5.8829346 19.421246 5.9767456 19.646404 6.089325 19.984142 6.239441 20.312508 6.3895264 20.6221 6.539673 20.959839 6.6991577 21.363258 6.9243164 21.785427 7.1119385 22.160694 7.2526855 22.517204 7.4591064 22.883087 7.609192 23.248974 7.7124023 23.624245 7.8531494 23.961979 7.9656982 24.252815 8.078308 24.524887 8.181519 24.853245 8.26593 25.162838 8.37854 25.416145 8.48172 25.641304 8.594299 25.763268 8.68811 25.86647 8.763184 25.97905 8.828857 26.11039 8.903931 26.260498 8.960205 26.410606 8.997742 26.504425 9.035278 26.541946 9.035278 26.513802 9.035278 26.269882 9.025879 26.269882 9.025879 " /></g><g stroke="rgb(76, 96, 130)" stroke-width="0.254" fill="none"><path d = "M 16.353428 6.014282 L 16.353428 6.004883 16.334663 5.9204407 16.334663 5.8829346 16.334663 5.873535 16.334663 5.873535 16.419102 5.9486084 16.61612 6.0424194 16.850658 6.14563 17.11335 6.24881 17.441708 6.3520203 17.770065 6.4458313 18.145332 6.539673 18.473694 6.652252 18.755142 6.811737 19.017834 6.961853 19.271137 7.0838013 19.608875 7.196411 19.909088 7.327759 20.237446 7.4591064 20.490757 7.5904236 20.7253 7.693634 20.922314 7.7968445 21.138088 7.8906555 21.40078 8.003235 21.616562 8.106445 21.81358 8.219025 22.00121 8.312866 22.226368 8.462952 22.470295 8.566162 22.714222 8.678741 22.854942 8.791321 23.061337 8.922668 23.370937 9.100952 23.567955 9.213501 23.708675 9.316711 23.858784 9.401154 24.046421 9.494965 24.196526 9.607544 24.431068 9.7013855 24.562408 9.738892 24.599937 9.738892 24.506119 9.692017 24.431068 9.65448 24.431068 9.65448 " /></g><g stroke="rgb(76, 96, 130)" stroke-width="0.254" fill="none"><path d = "M 13.970478 6.5209045 L 14.148731 6.511505 14.355129 6.502136 14.467709 6.492737 14.552143 6.492737 14.655342 6.492737 14.86174 6.5490417 15.096283 6.6053467 15.424641 6.7085266 15.781143 6.8586426 16.137653 7.0087585 16.5223 7.2245483 16.93509 7.374634 17.376034 7.571686 17.779446 7.7968445 18.201622 8.022003 18.642563 8.228394 19.13041 8.444214 19.599495 8.669373 20.06858 8.875763 20.443848 9.007111 20.744064 9.11969 20.969223 9.2323 21.175621 9.344879 21.40078 9.494965 21.597797 9.607544 21.832336 9.767059 22.076263 9.870239 22.292046 9.964081 22.310802 10.001587 22.273277 9.982849 22.207603 9.926544 22.207603 9.926544 " /></g><g stroke="rgb(76, 96, 130)" stroke-width="0.254" fill="none"><path d = "M 12.460026 6.736664 L 12.460026 6.736664 12.47879 6.6897583 12.53508 6.652252 12.61013 6.652252 12.703949 6.652252 12.722713 6.652252 12.797768 6.7085266 12.966637 6.746063 13.266853 6.8305054 13.623356 6.98999 13.989243 7.1307373 14.355129 7.327759 14.730396 7.5529175 15.124428 7.7686768 15.499695 7.993866 15.8655815 8.228394 16.212708 8.453583 16.578587 8.68811 16.953857 8.885132 17.376034 9.082153 17.770065 9.2229 18.154713 9.382385 18.5206 9.588806 18.867725 9.785828 19.055355 9.86087 19.149174 9.917175 19.252373 9.97345 19.458767 10.057892 19.702694 10.161102 19.815277 10.29245 19.834034 10.348724 19.834034 10.348724 " /></g><g stroke="rgb(76, 96, 130)" stroke-width="0.254" fill="none"><path d = "M 10.912048 6.980591 L 10.912048 6.971222 10.930809 6.914917 10.94957 6.877411 10.968338 6.868042 11.024624 6.88678 11.174732 6.905548 11.324841 6.98999 11.615673 7.149475 11.925266 7.290222 12.253628 7.477844 12.61013 7.684265 13.0323105 7.909424 13.360668 8.1345825 13.651501 8.2846985 13.932953 8.500488 14.289459 8.716278 14.683487 8.950806 15.021229 9.166626 15.255772 9.363617 15.4903145 9.523132 15.7248535 9.616943 15.987545 9.748291 16.212708 9.879639 16.409721 10.010986 16.550446 10.104797 16.709938 10.1892395 16.916332 10.264313 16.991386 10.320587 17.01015 10.339355 16.991386 10.29245 16.991386 10.29245 " /></g><g stroke="rgb(76, 96, 130)" stroke-width="0.254" fill="none"><path d = "M 9.364067 7.684265 L 9.364067 7.684265 9.364067 7.6560974 9.364067 7.62796 9.354687 7.5904236 9.307777 7.534149 9.251488 7.4872437 9.223339 7.477844 9.223339 7.4966125 9.364067 7.599823 9.570461 7.7311707 9.851917 7.8625183 10.15213 8.05954 10.546158 8.209656 10.9871025 8.425446 11.4468 8.659973 11.91589 8.903931 12.375587 9.138458 12.835293 9.354248 13.219944 9.504364 13.538921 9.692017 13.801605 9.842102 14.054916 9.97345 14.223785 10.095428 14.383274 10.170471 14.523998 10.226776 14.617817 10.283051 14.721016 10.376892 14.73978 10.405029 14.73978 10.405029 " /></g><g stroke="rgb(76, 96, 130)" stroke-width="0.254" fill="none"><path d = "M 8.022484 8.2846985 L 8.0131035 8.26593 7.994339 8.237793 7.9849586 8.200256 7.9755783 8.153351 7.9755783 8.125214 7.994339 8.125214 8.069393 8.181519 8.228882 8.237793 8.37899 8.322235 8.679203 8.472351 9.082615 8.678741 9.54232 8.9133 10.08646 9.147827 10.649357 9.363617 11.202881 9.598175 11.690727 9.804565 12.094139 9.992218 12.441265 10.142334 12.694569 10.236145 12.797768 10.273682 12.863441 10.29245 12.844677 10.311218 12.844677 10.311218 " /></g><g stroke="rgb(76, 96, 130)" stroke-width="0.254" fill="none"><path d = "M 7.0280266 8.838257 L 6.9998817 8.80072 6.9904976 8.781952 6.9904976 8.753784 7.009262 8.725647 7.0280266 8.716278 7.0280266 8.716278 6.9998817 8.753784 6.9904976 8.810089 7.0467873 8.847626 7.140606 8.903931 7.271946 8.960205 7.4689636 9.044647 7.619072 9.110321 7.966194 9.241669 8.200737 9.401154 8.416515 9.523132 8.538479 9.635712 8.641678 9.738892 8.791782 9.842102 8.941891 9.917175 9.091999 9.992218 9.242104 10.048523 9.354687 10.123566 9.457882 10.161102 9.551701 10.245544 9.58923 10.339355 9.58923 10.339355 " /></g></svg>
