<?xml version="1.0" encoding="utf-8"?>
<!DOCTYPE svg PUBLIC "-//W3C//DTD SVG 1.1//EN" "http://www.w3.org/Graphics/SVG/1.1/DTD/svg11.dtd"><svg xmlns="http://www.w3.org/2000/svg" version="1.1" x="0mm" y="0mm" width="34.99574mm" height="37.33005mm" viewBox="0.0 0.0 34.99574 37.33005"><g stroke="rgb(76, 96, 130)" stroke-width="0.254" fill="none"><path d="M 28.981369 26.230484 L 30.4543 20.347977"/><path d="M 1.0051613 9.51178 L 1.2209358 14.897034 L 3.8759613 26.624542 L 5.667862 30.19905 L 10.124165 34.96512 L 15.912674 37.366882 L 21.24147 36.513107 L 24.90033 34.148865 L 28.456001 28.735474"/><path d="M 31.880318 16.022919 L 33.77542 6.397003"/><path d="M 28.75621 14.071457 L 26.176247 14.906448 L 24.862812 17.908691 L 31.15792 21.00473 L 32.415077 22.571533 L 32.658997 24.907623 L 29.619331 27.046722 L 24.03722 27.881699 L 27.105034 29.251495 L 31.74897 27.478287 L 34.488426 24.325958 L 34.798027 20.732666 L 32.940453 18.22763 L 27.789902 14.746948"/><path d="M 17.24355 0.85372925 L 12.909214 1.4729614 L 5.0004463 4.615906 L 1.0132256 6.9895325 L 0.056289673 9.288147 L 1.6511803 10.094971 L 17.19664 10.52655 L 25.884094 9.963654 L 31.803947 8.565735 L 33.473885 7.242859 L 33.94297 5.7698975 L 30.218437 2.2235107 L 24.289204 0.29083252 L 16.962105 0.31896973"/><path d="M 4.9997787 10.314575 L 9.812592 7.509369 L 20.029255 5.632965 L 26.239937 6.205261 L 28.669792 7.9690857 L 28.547829 9.385742"/><path d="M 20.453228 5.723419 L 27.780334 8.209656"/><path d="M 18.417404 5.8641663 L 26.269882 9.025879"/><path d="M 16.353428 6.014282 L 24.431068 9.65448"/><path d="M 13.970478 6.5209045 L 22.207603 9.926544"/><path d="M 12.460026 6.736664 L 19.834034 10.348724"/><path d="M 10.912048 6.980591 L 16.991386 10.29245"/><path d="M 9.364067 7.684265 L 14.73978 10.405029"/><path d="M 8.022484 8.2846985 L 12.844677 10.311218"/><path d="M 7.0280266 8.838257 L 9.58923 10.339355"/></g></svg>